# xmcd CD database file
#
# Track frame offsets:
#	150
#	20554
#	42695
#	75861
#	90677
#	125351
#	138511
#
# Disc length: 2065 seconds
#
# Revision: 2
# Processed by: cddbd v1.5.1PL0 Copyright (c) Steve Scherf et al.
# Submitted via: CDex 1.51
#
DISCID=54080f07
DTITLE=Nationalteatern - Barn Av Vår Tid
DYEAR=1991
DGENRE=Progressive Rock
TTITLE0=Popens Mussolinis
TTITLE1=Kolla kolla
TTITLE2=Spisa
TTITLE3=Ingelas sång
TTITLE4=Barn av vår tid
TTITLE5=Men bara om min  älskade vänter...
TTITLE6=Ge mej mitt liv nu
EXTD=YEAR: 1991
EXTT0=
EXTT1=
EXTT2=
EXTT3=
EXTT4=
EXTT5=
EXTT6=
PLAYORDER=
